<?xml version="1.0" encoding="UTF-8"?>
<svg id="Layer_1" xmlns="http://www.w3.org/2000/svg" version="1.1" viewBox="0 0 541.99 207.61">
  <!-- Generator: Adobe Illustrator 29.6.1, SVG Export Plug-In . SVG Version: 2.1.1 Build 9)  -->
  <defs>
    <style>
      .st0 {
        fill: #303a1f;
      }
    </style>
  </defs>
  <g>
    <path class="st0" d="M193.54,92.27c-2.98-1.89-6.27-2.84-9.87-2.84-2.42,0-4.72.51-6.89,1.53-2.17,1.02-4.02,2.58-5.54,4.66-.25.35-.47.73-.7,1.1v-25.35h-11.54v64.88h11.54v-6.27c.27.44.54.89.84,1.29,1.61,2.14,3.49,3.66,5.63,4.56s4.36,1.35,6.66,1.35c4.03,0,7.52-1.04,10.47-3.12,2.95-2.08,5.2-4.93,6.75-8.56s2.33-7.71,2.33-12.24c0-5.03-.87-9.31-2.61-12.85s-4.09-6.25-7.07-8.15h0ZM190.28,120.33c-.93,1.99-2.22,3.52-3.86,4.61-1.65,1.09-3.62,1.63-5.91,1.63s-4.18-.56-5.82-1.68-2.92-2.67-3.82-4.65c-.9-1.99-1.35-4.31-1.35-6.98s.45-5,1.35-6.98c.9-1.99,2.17-3.52,3.82-4.61,1.64-1.08,3.58-1.63,5.82-1.63s4.27.54,5.91,1.63c1.64,1.09,2.93,2.61,3.86,4.56s1.4,4.3,1.4,7.03-.47,5.09-1.4,7.07h0Z"/>
    <path class="st0" d="M227.05,126.48c-.99,0-1.8-.26-2.42-.79-.62-.53-.93-1.44-.93-2.75v-51.57h-11.45v53.81c0,4.16,1.02,7.2,3.07,9.12,2.05,1.93,4.65,2.89,7.82,2.89.99,0,2.13-.11,3.4-.33,1.27-.22,2.56-.57,3.86-1.07v-9.87c-.62.19-1.21.33-1.77.42-.56.09-1.09.14-1.58.14Z"/>
    <path class="st0" d="M271.18,92.5c-3.48-2.05-7.42-3.07-11.82-3.07s-8.46,1.02-11.96,3.07c-3.51,2.05-6.25,4.86-8.24,8.42-1.99,3.57-2.98,7.68-2.98,12.34s1.01,8.7,3.02,12.33c2.02,3.63,4.76,6.47,8.24,8.52s7.45,3.07,11.92,3.07,8.35-1.04,11.82-3.12c3.48-2.08,6.21-4.92,8.19-8.52,1.99-3.6,2.98-7.69,2.98-12.29s-.99-8.76-2.98-12.34c-1.99-3.57-4.72-6.38-8.19-8.42h0ZM269.36,120.61c-.9,2.05-2.2,3.63-3.91,4.75-1.71,1.12-3.74,1.68-6.1,1.68s-4.5-.56-6.24-1.68-3.07-2.7-4-4.75-1.4-4.5-1.4-7.35.47-5.38,1.4-7.4,2.27-3.57,4-4.66c1.74-1.08,3.82-1.63,6.24-1.63s4.39.54,6.1,1.63c1.71,1.09,3.01,2.64,3.91,4.66s1.35,4.48,1.35,7.4-.45,5.31-1.35,7.35Z"/>
    <path class="st0" d="M305.62,101.48c1.61-1.33,3.66-2,6.14-2,2.67,0,4.76.7,6.28,2.1,1.52,1.4,2.65,3.18,3.4,5.35l10.05-4c-1.68-4.53-4.22-7.91-7.63-10.15-3.41-2.23-7.45-3.35-12.1-3.35-3.72,0-6.97.67-9.73,2-2.76,1.34-5.09,3.12-6.98,5.35-1.89,2.23-3.31,4.78-4.24,7.63s-1.39,5.8-1.39,8.84.46,6.08,1.39,8.94c.93,2.85,2.34,5.4,4.24,7.63,1.89,2.23,4.22,4.02,6.98,5.35,2.76,1.33,6,2,9.73,2,4.65,0,8.69-1.12,12.1-3.35s5.96-5.65,7.63-10.24l-10.05-4c-.74,2.23-1.88,4.05-3.4,5.45s-3.62,2.1-6.28,2.1c-2.48,0-4.53-.67-6.14-2-1.62-1.33-2.79-3.07-3.54-5.21s-1.12-4.36-1.12-6.66.37-4.5,1.12-6.61c.74-2.11,1.92-3.83,3.54-5.17h0Z"/>
    <polygon class="st0" points="383.07 90.36 368.36 90.36 351.79 107.8 351.79 71.37 340.16 71.37 340.16 136.25 351.79 136.25 351.79 122.17 357.94 115.31 371.25 136.25 385.03 136.25 366.41 107.49 383.07 90.36"/>
    <path class="st0" d="M408.39,81.61c.62-.99,1.68-1.49,3.17-1.49.68,0,1.36.11,2.05.33.68.22,1.33.48,1.95.79l3.72-8.84c-1.3-.62-2.65-1.1-4.05-1.44-1.39-.34-3.06-.51-4.98-.51-2.54,0-4.92.44-7.12,1.3-2.2.87-3.96,2.39-5.26,4.56s-1.96,5.24-1.96,9.22v4.84h-8.38v9.03h8.29v36.87h11.64v-36.87h9.77v-9.03h-9.77v-4.75c0-1.68.31-3.01.93-4h0Z"/>
    <path class="st0" d="M454.19,108.6c0,3.72-.27,6.97-.79,9.73-.53,2.76-1.49,4.92-2.89,6.47s-3.46,2.33-6.19,2.33c-2.23,0-3.99-.48-5.26-1.44s-2.16-2.27-2.65-3.91c-.5-1.64-.74-3.52-.74-5.63v-25.78h-11.54v28.67c0,3.66.61,6.86,1.82,9.59s3.07,4.84,5.58,6.33,5.63,2.23,9.36,2.23c3.23,0,6.18-.78,8.84-2.33,1.79-1.04,3.26-2.57,4.47-4.51v5.91h11.54v-45.89h-11.54v18.24h0Z"/>
    <path class="st0" d="M493.38,126.34c-.56.09-1.09.14-1.58.14-.99,0-1.8-.26-2.42-.79-.62-.53-.93-1.44-.93-2.75v-51.57h-11.45v53.81c0,4.16,1.02,7.2,3.07,9.12,2.05,1.93,4.65,2.89,7.82,2.89.99,0,2.13-.11,3.4-.33,1.27-.22,2.56-.57,3.86-1.07v-9.87c-.62.19-1.21.33-1.77.42h0Z"/>
  </g>
  <path class="st0" d="M116.28,78.65l-26.72-15.43c-1.61-.93-3.46-1.42-5.33-1.42s-3.72.49-5.33,1.42l-26.72,15.43c-3.29,1.9-5.33,5.44-5.33,9.23v31.85c0,3.79,2.04,7.33,5.33,9.23l26.72,15.43c1.61.93,3.46,1.42,5.33,1.42s3.72-.49,5.33-1.42l26.72-15.43c3.29-1.9,5.33-5.44,5.33-9.23v-31.85c0-3.8-2.04-7.33-5.33-9.23ZM112.48,87.88v27.47l-23.68-13.67v-28.35l22.92,13.23c.47.27.77.78.77,1.33h-.01ZM55.98,87.88c0-.54.29-1.05.77-1.33l22.92-13.23v28.35l-23.69,13.67v-27.47h0Z"/>
</svg>