<?xml version="1.0" encoding="UTF-8"?>
<svg id="Layer_1" xmlns="http://www.w3.org/2000/svg" version="1.1" viewBox="0 0 120 120">
  <!-- Generator: Adobe Illustrator 29.6.1, SVG Export Plug-In . SVG Version: 2.1.1 Build 9)  -->
  <defs>
    <style>
      .st0 {
        fill: #303a1f;
      }
    </style>
  </defs>
  <path class="st0" d="M92.05,34.84l-26.72-15.43c-1.61-.93-3.46-1.42-5.33-1.42s-3.72.49-5.33,1.42l-26.72,15.43c-3.29,1.9-5.33,5.44-5.33,9.23v31.85c0,3.79,2.04,7.33,5.33,9.23l26.72,15.43c1.61.93,3.46,1.42,5.33,1.42s3.72-.49,5.33-1.42l26.72-15.43c3.29-1.9,5.33-5.44,5.33-9.23v-31.85c0-3.8-2.04-7.33-5.33-9.23h0ZM88.25,44.07v27.47l-23.68-13.67v-28.35l22.92,13.23c.47.27.77.78.77,1.33h-.01,0ZM31.75,44.07c0-.54.29-1.05.77-1.33l22.92-13.23v28.35l-23.69,13.67v-27.47h0Z"/>
</svg>