<svg width="60" height="60" viewBox="0 0 60 60" fill="none" xmlns="http://www.w3.org/2000/svg">
<path d="M11.3606 35.073V24.3339L20.6874 18.9644L30.0142 24.3339V35.073L20.6874 40.4425L11.3606 35.073Z" fill="#F2F0EB" stroke="#303A1F" stroke-width="2" stroke-miterlimit="10"/>
<path d="M30.0142 24.334L20.6874 29.7035L11.3606 24.334" fill="#F2F0EB"/>
<path d="M30.0142 24.334L20.6874 29.7035L11.3606 24.334" stroke="#303A1F" stroke-width="2" stroke-miterlimit="10"/>
<path d="M20.6875 29.7036V40.4427" stroke="#303A1F" stroke-width="2" stroke-miterlimit="10"/>
<path d="M20.7213 51.3508V40.6117L30.0481 35.2422L39.3749 40.6117V51.3508L30.0481 56.7203L20.7213 51.3508Z" fill="#F2F0EB" stroke="#303A1F" stroke-width="2" stroke-miterlimit="10"/>
<path d="M39.3749 40.6118L30.0481 45.9813L20.7213 40.6118" fill="#F2F0EB"/>
<path d="M39.3749 40.6118L30.0481 45.9813L20.7213 40.6118" stroke="#303A1F" stroke-width="2" stroke-miterlimit="10"/>
<path d="M30.0482 45.9814V56.7205" stroke="#303A1F" stroke-width="2" stroke-miterlimit="10"/>
<path d="M29.9858 35.073V24.3339L39.3126 18.9644L48.6394 24.3339V35.073L39.3126 40.4425L29.9858 35.073Z" fill="#F2F0EB" stroke="#303A1F" stroke-width="2" stroke-miterlimit="10"/>
<path d="M48.6394 24.334L39.3126 29.7035L29.9858 24.334" fill="#F2F0EB"/>
<path d="M48.6394 24.334L39.3126 29.7035L29.9858 24.334" stroke="#303A1F" stroke-width="2" stroke-miterlimit="10"/>
<path d="M39.3126 29.7036V40.4427" stroke="#303A1F" stroke-width="2" stroke-miterlimit="10"/>
<path d="M39.3465 51.3508V40.6117L48.6733 35.2422L58.0001 40.6117V51.3508L48.6733 56.7203L39.3465 51.3508Z" fill="#F2F0EB" stroke="#303A1F" stroke-width="2" stroke-miterlimit="10"/>
<path d="M58.0001 40.6118L48.6733 45.9813L39.3465 40.6118" stroke="#303A1F" stroke-width="2" stroke-miterlimit="10"/>
<path d="M48.6733 45.9814V56.7205" stroke="#303A1F" stroke-width="2" stroke-miterlimit="10"/>
<path d="M2.00004 51.3508V40.6117L11.3268 35.2422L20.6536 40.6117V51.3508L11.3268 56.7203L2.00004 51.3508Z" fill="#F2F0EB" stroke="#303A1F" stroke-width="2" stroke-miterlimit="10"/>
<path d="M20.6536 40.6118L11.3268 45.9813L2.00004 40.6118" stroke="#303A1F" stroke-width="2" stroke-miterlimit="10"/>
<path d="M11.3269 45.9814V56.7205" stroke="#303A1F" stroke-width="2" stroke-miterlimit="10"/>
<path d="M20.4071 19.1086V8.36953L29.7339 3L39.0607 8.36953V19.1086L29.7339 24.4781L20.4071 19.1086Z" fill="#F2F0EB" stroke="#303A1F" stroke-width="2" stroke-miterlimit="10"/>
<path d="M39.0607 8.36938L29.7339 13.7389L20.4071 8.36938" stroke="#303A1F" stroke-width="2" stroke-miterlimit="10"/>
<path d="M29.734 13.739V24.4781" stroke="#303A1F" stroke-width="2" stroke-miterlimit="10"/>
<path d="M21 29V31V40.5L30 46L39.5 40.5V29L30 25L21 29Z" fill="#303A1F" fill-opacity="0.4"/>
</svg>
