<svg width="60" height="60" viewBox="0 0 60 60" fill="none" xmlns="http://www.w3.org/2000/svg">
<path d="M6.99997 24.9013V16L14.7307 11.5493L22.4615 16V24.9013L14.7307 29.352L6.99997 24.9013Z" fill="#F2F0EB" stroke="#303A1F" stroke-width="2" stroke-miterlimit="10"/>
<path d="M22.4615 16L14.7307 20.4507L6.99997 16" stroke="#303A1F" stroke-width="2" stroke-miterlimit="10"/>
<path d="M14.7308 20.4509V29.3523" stroke="#303A1F" stroke-width="2" stroke-miterlimit="10"/>
<path d="M37.4384 24.9013V16L45.1691 11.5493L52.8999 16V24.9013L45.1691 29.352L37.4384 24.9013Z" fill="#F2F0EB" stroke="#303A1F" stroke-width="2" stroke-miterlimit="10"/>
<path d="M52.8999 16L45.1691 20.4507L37.4384 16" stroke="#303A1F" stroke-width="2" stroke-miterlimit="10"/>
<path d="M45.1692 20.4509V29.3523" stroke="#303A1F" stroke-width="2" stroke-miterlimit="10"/>
<path d="M6.99997 44V35.0986L14.7307 30.6479L22.4615 35.0986V44L14.7307 48.4507L6.99997 44Z" fill="#F2F0EB" stroke="#303A1F" stroke-width="2" stroke-miterlimit="10"/>
<path d="M22.4615 35.0986L14.7307 39.5493L6.99997 35.0986" stroke="#303A1F" stroke-width="2" stroke-miterlimit="10"/>
<path d="M14.7308 39.5493V48.4507" stroke="#303A1F" stroke-width="2" stroke-miterlimit="10"/>
<path d="M37.4384 44V35.0986L45.1691 30.6479L52.8999 35.0986V44L45.1691 48.4507L37.4384 44Z" fill="#F2F0EB" stroke="#303A1F" stroke-width="2" stroke-miterlimit="10"/>
<path d="M52.8999 35.0986L45.1691 39.5493L37.4384 35.0986" stroke="#303A1F" stroke-width="2" stroke-miterlimit="10"/>
<path d="M45.1692 39.5493V48.4507" stroke="#303A1F" stroke-width="2" stroke-miterlimit="10"/>
<path d="M22.5176 15.352V6.45068L30.2484 2L37.9791 6.45068V15.352L30.2484 19.8027L22.5176 15.352Z" fill="#F2F0EB" stroke="#303A1F" stroke-width="2" stroke-miterlimit="10"/>
<path d="M37.9791 6.45068L30.2484 10.9014L22.5176 6.45068" stroke="#303A1F" stroke-width="2" stroke-miterlimit="10"/>
<path d="M30.2484 10.9014V19.8027" stroke="#303A1F" stroke-width="2" stroke-miterlimit="10"/>
<path d="M22.5176 53.5493V44.6479L30.2484 40.1973L37.9791 44.6479V53.5493L30.2484 58L22.5176 53.5493Z" fill="#F2F0EB" stroke="#303A1F" stroke-width="2" stroke-miterlimit="10"/>
<path d="M37.9791 44.6477L30.2484 49.0984L22.5176 44.6477" stroke="#303A1F" stroke-width="2" stroke-miterlimit="10"/>
<path d="M30.2484 49.0989V58.0002" stroke="#303A1F" stroke-width="2" stroke-miterlimit="10"/>
<path d="M22.5176 34.4507V25.5493L30.2484 21.0986L37.9791 25.5493V34.4507L30.2484 38.9013L22.5176 34.4507Z" fill="#303A1F" fill-opacity="0.4" stroke="#303A1F" stroke-width="2" stroke-miterlimit="10"/>
<path d="M37.9791 25.5491L30.2484 29.9998L22.5176 25.5491" stroke="#303A1F" stroke-width="2" stroke-miterlimit="10"/>
<path d="M30.2484 30V38.9014" stroke="#303A1F" stroke-width="2" stroke-miterlimit="10"/>
</svg>
