<svg width="60" height="60" viewBox="0 0 60 60" fill="none" xmlns="http://www.w3.org/2000/svg">
<path d="M11.2904 27.3693V16.4564L20.7681 11L30.2458 16.4564V27.3693L20.7681 32.8257L11.2904 27.3693Z" fill="#F2F0EB" stroke="#303A1F" stroke-width="2" stroke-miterlimit="10"/>
<path d="M30.2458 16.4565L20.7681 21.913L11.2904 16.4565" stroke="#303A1F" stroke-width="2" stroke-miterlimit="10"/>
<path d="M20.7682 21.9131V32.8259" stroke="#303A1F" stroke-width="2" stroke-miterlimit="10"/>
<path d="M1.99995 32.7887V21.8759L11.4777 16.4194L20.9554 21.8759V32.7887L11.4777 38.2451L1.99995 32.7887Z" fill="#F2F0EB" stroke="#303A1F" stroke-width="2" stroke-miterlimit="10"/>
<path d="M20.9554 21.876L11.4777 27.3324L1.99995 21.876" stroke="#303A1F" stroke-width="2" stroke-miterlimit="10"/>
<path d="M11.4777 27.3325V38.2454" stroke="#303A1F" stroke-width="2" stroke-miterlimit="10"/>
<path d="M29.68 27.3693V16.4564L39.1577 11L48.6354 16.4564V27.3693L39.1577 32.8257L29.68 27.3693Z" fill="#F2F0EB" stroke="#303A1F" stroke-width="2" stroke-miterlimit="10"/>
<path d="M48.6354 16.4565L39.1577 21.913L29.68 16.4565" stroke="#303A1F" stroke-width="2" stroke-miterlimit="10"/>
<path d="M39.1578 21.9131V32.8259" stroke="#303A1F" stroke-width="2" stroke-miterlimit="10"/>
<path d="M20.5068 32.641V21.7281L29.9846 16.2717L39.4623 21.7281V32.641L29.9846 38.0974L20.5068 32.641Z" fill="#F2F0EB" stroke="#303A1F" stroke-width="2" stroke-miterlimit="10"/>
<path d="M39.4623 21.7278L29.9846 27.1842L20.5068 21.7278" stroke="#303A1F" stroke-width="2" stroke-miterlimit="10"/>
<path d="M29.9847 27.1843V38.0972" stroke="#303A1F" stroke-width="2" stroke-miterlimit="10"/>
<path d="M11.2164 38.0604V27.1476L20.6941 21.6912L30.1718 27.1476V38.0604L20.6941 43.5168L11.2164 38.0604Z" fill="#F2F0EB" stroke="#303A1F" stroke-width="2" stroke-miterlimit="10"/>
<path d="M30.1718 27.1472L20.6941 32.6036L11.2164 27.1472" stroke="#303A1F" stroke-width="2" stroke-miterlimit="10"/>
<path d="M20.6942 32.6038V43.5166" stroke="#303A1F" stroke-width="2" stroke-miterlimit="10"/>
<path d="M39.0445 32.7887V21.8759L48.5222 16.4194L57.9999 21.8759V32.7887L48.5222 38.2451L39.0445 32.7887Z" fill="#F2F0EB" stroke="#303A1F" stroke-width="2" stroke-miterlimit="10"/>
<path d="M57.9999 21.876L48.5222 27.3324L39.0445 21.876" stroke="#303A1F" stroke-width="2" stroke-miterlimit="10"/>
<path d="M48.5223 27.3325V38.2454" stroke="#303A1F" stroke-width="2" stroke-miterlimit="10"/>
<path d="M29.8713 38.0604V27.1476L39.349 21.6912L48.8267 27.1476V38.0604L39.349 43.5168L29.8713 38.0604Z" fill="#F2F0EB" stroke="#303A1F" stroke-width="2" stroke-miterlimit="10"/>
<path d="M48.8267 27.1472L39.349 32.6036L29.8713 27.1472" stroke="#303A1F" stroke-width="2" stroke-miterlimit="10"/>
<path d="M39.3491 32.6038V43.5166" stroke="#303A1F" stroke-width="2" stroke-miterlimit="10"/>
<path d="M20.5808 43.6276V32.7147L30.0585 27.2583L39.5363 32.7147V43.6276L30.0585 49.084L20.5808 43.6276Z" fill="#F2F0EB" stroke="#303A1F" stroke-width="2" stroke-miterlimit="10"/>
<path d="M39.5363 32.7144L30.0585 38.1708L20.5808 32.7144" stroke="#303A1F" stroke-width="2" stroke-miterlimit="10"/>
<path d="M30.0587 38.1709V49.0837" stroke="#303A1F" stroke-width="2" stroke-miterlimit="10"/>
<path d="M30.5 38.5L3 22L20.5 11L30.5 15.5L39 11L58 22L30.5 38.5Z" fill="#303A1F" fill-opacity="0.4"/>
</svg>
